# xmcd
#
# Track frame offsets:
#	182
#	15285
#	30487
#	42735
#	57215
#	73217
#	84350
#	101272
#	116737
#	129947
#
# Disc length: 1941
#
# Revision: 3
# Processed by: cddbd v1.5.1PL0 Copyright (c) Steve Scherf et al.
# Submitted via: CDex 1.50Beta7
# Normalized: r2:DSETVAR1,TDELIM( - )
#
DISCID=7907930a
DTITLE=Various Artist - Pure Country 80's hits
DYEAR=1900
DGENRE=
TTITLE0=Alabama - Love in the First Degree
TTITLE1=Sylvia - Nobody
TTITLE2=John Anderson - Wild and Blue
TTITLE3=Earl Thomas Conley - Holding her and Loving You
TTITLE4=Willie Nelson - Let it Be Me
TTITLE5=Eddy Raven - I Got Mexico
TTITLE6=Juice Newton - Hurt
TTITLE7=Razzy Bailey - Friends
TTITLE8=Dolly Parton - I Will Always Love You
TTITLE9=Steve Warner - All Roads Lead To You
EXTD=
EXTT0=Alabama\n
EXTT1=Sylvia\n
EXTT2=John Anderson\n
EXTT3=Earl Thomas Conley\n
EXTT4=Willie Nelson\n
EXTT5=Eddy Raven\n
EXTT6=Juice Newton\n
EXTT7=Razzy Bailey\n
EXTT8=Dolly Parton\n
EXTT9=Steve Wariner\n
PLAYORDER=
